<svg width="316" height="275" viewBox="0 0 316 275" fill="none" xmlns="http://www.w3.org/2000/svg">
<path d="M315.03 194.812C310.492 219.12 306.814 244.898 298.631 268.274H44.4274C28.0518 255.788 13.173 233.932 20.4072 211.849C25.1549 197.356 41.45 188.657 40.4039 171.855C39.9291 164.113 35.7769 157.967 32.9766 151.015C26.3781 134.666 20.8176 108.939 30.9246 92.8927C43.8722 72.346 74.185 74.6551 93.3046 65.2844C103.669 60.2464 112.094 51.6398 119.916 42.8568C125.605 36.4754 131.182 29.8168 138.134 25.0307C152.417 15.215 172.06 14.8119 186.697 24.0399C201.568 33.419 211.144 50.0024 230.505 46.4003C238.552 44.8972 246.704 41.6645 254.831 43.982C263.043 46.4642 270.046 52.1061 274.425 59.7678C286.182 80.4656 267.014 102.347 275.029 123.725C281.008 139.679 298.236 145.641 307.844 158.521C315.569 168.883 317.404 182.074 315.03 194.812Z" fill="#49BAD4"/>
<path d="M65.0681 209.019L58.4696 201.462L50.0847 207.046L50.2939 207.289C48.7603 206.289 47.1179 205.482 45.4014 204.888H45.7152L44.484 194.585L34.6909 194.115L32.5504 204.25H32.8642C31.1018 204.673 29.3944 205.316 27.7786 206.164L28.0119 205.946L20.1581 199.573L12.9158 206.466L18.2671 215.207L18.5004 214.989C17.5458 216.59 16.776 218.304 16.207 220.094V219.767L6.32539 221.102L5.87476 231.32L15.5874 233.554V233.226C15.995 235.062 16.611 236.841 17.4221 238.525L17.2129 238.29L11.1536 246.485L17.7601 254.042L26.137 248.45L25.9278 248.206C27.4623 249.205 29.1045 250.011 30.8203 250.608H30.5065L31.7457 260.902L41.5388 261.381L43.6793 251.237H43.3414C45.0986 250.805 46.8024 250.162 48.419 249.323L48.1937 249.541L56.0475 255.906L63.2897 249.021L57.9305 240.271L57.6971 240.49C58.6557 238.889 59.4283 237.175 59.9985 235.384V235.712L69.8963 234.402L70.3228 224.2L60.6021 221.967V222.294C60.1886 220.457 59.5729 218.676 58.7674 216.987L58.9766 217.231L65.0681 209.019Z" fill="#158171"/>
<path d="M45.8564 247.017C56.0526 242.553 60.8505 230.31 56.5728 219.67C52.295 209.031 40.5616 204.025 30.3654 208.488C20.1692 212.952 15.3713 225.195 19.6491 235.835C23.9268 246.474 35.6602 251.48 45.8564 247.017Z" fill="#5CBAB7"/>
<path opacity="0.2" d="M48.427 206.206C47.4513 205.689 46.4399 205.248 45.4014 204.888H45.7152L44.484 194.585L34.6909 194.115L32.5504 204.25H32.8642C31.1018 204.673 29.3944 205.316 27.7786 206.164L28.0119 205.946L20.1581 199.573L12.9158 206.466L18.2671 215.207L18.5004 214.989C17.5458 216.59 16.776 218.304 16.207 220.094V219.767L6.32539 221.102L5.87476 231.32L15.5874 233.554V233.226C15.995 235.062 16.611 236.841 17.4221 238.525L17.2129 238.29L11.1536 246.485L17.7601 254.042L26.137 248.45L25.9278 248.206C26.5341 248.601 27.16 248.963 27.8027 249.289L48.427 206.206Z" fill="white"/>
<path d="M51.7062 234.476C55.2586 226.641 52.0517 217.285 44.5434 213.579C37.0351 209.872 28.0687 213.218 24.5163 221.053C20.964 228.887 24.1709 238.243 31.6792 241.95C39.1874 245.657 48.1539 242.311 51.7062 234.476Z" fill="#086453"/>
<path d="M42.3034 237.751C47.598 235.339 50.0159 228.904 47.7038 223.379C45.3917 217.855 39.2252 215.332 33.9306 217.744C28.6359 220.157 26.2181 226.591 28.5301 232.116C30.8422 237.641 37.0087 240.164 42.3034 237.751Z" fill="white"/>
<path d="M33.2342 156.901L27.8267 153.811L23.94 158.924L24.109 159.017C23.0037 158.75 21.8717 158.623 20.7373 158.639L20.9224 158.58L18.1704 152.702L12.2639 154.508L12.972 160.99L13.1652 160.931C12.2007 161.56 11.3119 162.307 10.5177 163.156L10.6062 162.971L4.71586 160.881L1.73849 166.515L6.63103 170.57L6.7276 170.394C6.47298 171.551 6.34875 172.734 6.35744 173.921L6.32525 173.719L0.692383 176.591L2.42248 182.762L8.63472 182.015L8.57839 181.822C9.18275 182.825 9.89556 183.752 10.7028 184.584L10.5338 184.484L8.50597 190.655L13.9135 193.737L17.8002 188.632L17.6312 188.531C18.7369 188.796 19.8684 188.926 21.0029 188.917L20.8178 188.976L23.5699 194.854L29.4763 193.048L28.7682 186.574L28.5831 186.625C29.5433 185.997 30.4292 185.253 31.2225 184.408L31.134 184.584L37.0485 186.7L40.0017 181.058L35.1092 177.002L35.0126 177.187C35.2668 176.03 35.391 174.847 35.3828 173.66L35.4311 173.854L41.0639 170.99L39.3177 164.793L33.1055 165.532L33.1618 165.734C32.5595 164.73 31.8465 163.802 31.0374 162.971L31.2064 163.072L33.2342 156.901Z" fill="#EF9426"/>
<path d="M29.6941 183.145C34.656 178.066 34.7324 169.751 29.8649 164.573C24.9974 159.396 17.0291 159.316 12.0673 164.395C7.1054 169.474 7.0289 177.789 11.8964 182.966C16.7639 188.144 24.7322 188.224 29.6941 183.145Z" fill="#E8C98B"/>
<path opacity="0.2" d="M22.7893 158.773C22.1092 158.678 21.4235 158.633 20.7373 158.639L20.9224 158.58L18.1704 152.702L12.2639 154.508L12.972 160.99L13.1652 160.931C12.2007 161.56 11.3119 162.307 10.5177 163.156L10.6062 162.971L4.71586 160.881L1.73849 166.515L6.63103 170.57L6.7276 170.394C6.47298 171.551 6.34875 172.734 6.35744 173.921L6.32525 173.719L0.692383 176.591L2.42248 182.762L8.63472 182.015L8.57839 181.822C9.18275 182.825 9.89556 183.752 10.7028 184.584L10.5338 184.484L8.50597 190.655L13.9135 193.737L17.8002 188.632L17.6312 188.531C18.0665 188.637 18.5071 188.718 18.9509 188.774L22.7893 158.773Z" fill="white"/>
<path d="M23.5208 183.254C28.5326 181.724 31.4066 176.244 29.9401 171.014C28.4736 165.785 23.2219 162.786 18.2102 164.316C13.1984 165.846 10.3243 171.326 11.7908 176.556C13.2573 181.785 18.509 184.784 23.5208 183.254Z" fill="#C66B28"/>
<path d="M26.3541 177.565C28.364 174.409 27.5419 170.151 24.518 168.054C21.4941 165.957 17.4134 166.815 15.4036 169.97C13.3937 173.125 14.2158 177.383 17.2397 179.481C20.2636 181.578 24.3443 180.72 26.3541 177.565Z" fill="white"/>
<path d="M254.542 166.943L264.069 169.336L263.417 179.698L263.112 179.622C264.688 180.544 266.155 181.657 267.481 182.939L267.32 182.662L276.566 178.858L281.684 187.582L274.2 194.425L274.039 194.148C274.528 195.963 274.812 197.832 274.884 199.715L274.957 199.396L284.09 203.502L281.797 213.452L271.875 212.73L271.947 212.411C271.064 214.056 269.997 215.587 268.769 216.971L269.034 216.803L272.679 226.442L264.351 231.757L257.793 223.957L258.058 223.789C256.317 224.285 254.527 224.566 252.723 224.628L253.029 224.704L249.094 234.276L239.558 231.883L240.21 221.522L240.516 221.605C238.941 220.694 237.474 219.592 236.146 218.322L236.307 218.599L227.061 222.437L221.984 213.704L229.459 206.861L229.62 207.138C229.132 205.323 228.848 203.455 228.775 201.571L228.703 201.882L219.57 197.776L221.863 187.834L231.785 188.514L231.712 188.825C232.598 187.181 233.665 185.651 234.891 184.265L234.625 184.442L230.948 174.794L239.309 169.454L245.867 177.254L245.601 177.431C247.34 176.916 249.131 176.62 250.937 176.549L250.631 176.473L254.542 166.943Z" fill="#155281"/>
<path d="M262.263 218.458C271.694 212.435 274.66 199.575 268.887 189.734C263.115 179.893 250.79 176.799 241.359 182.822C231.929 188.845 228.963 201.706 234.735 211.546C240.508 221.387 252.832 224.482 262.263 218.458Z" fill="#5C86BA"/>
<path opacity="0.2" d="M264.922 180.806C265.825 181.446 266.68 182.156 267.481 182.93L267.32 182.653L276.566 178.858L281.684 187.582L274.2 194.425L274.039 194.148C274.528 195.963 274.812 197.832 274.884 199.715L274.957 199.396L284.09 203.502L281.796 213.452L271.875 212.73L271.947 212.411C271.063 214.056 269.997 215.587 268.768 216.971L269.034 216.803L272.679 226.442L264.351 231.757L257.792 223.957L258.058 223.789C256.317 224.285 254.527 224.566 252.723 224.628L253.029 224.704L249.094 234.276L239.558 231.883L240.21 221.522L240.516 221.605C239.888 221.236 239.284 220.833 238.705 220.413L264.922 180.806Z" fill="white"/>
<path d="M264.179 209.566C268.909 202.442 267.21 192.665 260.383 187.728C253.556 182.792 244.186 184.565 239.455 191.689C234.724 198.813 236.423 208.59 243.251 213.527C250.078 218.463 259.448 216.69 264.179 209.566Z" fill="#083F64"/>
<path d="M259.21 208.337C263.295 204.074 263.295 197.162 259.21 192.899C255.124 188.637 248.501 188.637 244.416 192.899C240.33 197.162 240.33 204.074 244.416 208.337C248.501 212.599 255.124 212.599 259.21 208.337Z" fill="white"/>
<path d="M314.934 228.869L315.932 235.217L310.025 237.349V237.148C309.89 238.328 309.62 239.486 309.221 240.599L309.333 240.431L313.719 245.083L310.13 250.305L304.497 247.45L304.61 247.283C303.726 248.027 302.759 248.656 301.729 249.155H301.922L301.866 255.679L295.79 256.72L293.746 250.557H293.939C292.809 250.412 291.7 250.13 290.632 249.718L290.793 249.835L286.359 254.378L281.354 250.624L284.09 244.747L284.243 244.873C283.537 243.944 282.937 242.932 282.456 241.858V242.06L276.204 242.009L275.206 235.662L281.113 233.529V233.73C281.253 232.552 281.523 231.394 281.917 230.279L281.805 230.447L277.419 225.804L281.016 220.581L286.649 223.428L286.536 223.596C287.427 222.857 288.396 222.229 289.425 221.723H289.232L289.28 215.199L295.356 214.158L297.408 220.329H297.214C298.342 220.471 299.45 220.753 300.514 221.169L300.361 221.043L304.811 216.475L309.816 220.22L307.088 226.098L306.927 225.98C307.635 226.906 308.237 227.915 308.722 228.986V228.785L314.934 228.869Z" fill="#158171"/>
<path d="M308.082 236.686C308.754 229.468 303.689 223.048 296.771 222.348C289.853 221.647 283.7 226.932 283.029 234.151C282.358 241.37 287.423 247.79 294.341 248.49C301.259 249.19 307.411 243.905 308.082 236.686Z" fill="#5CBAB7"/>
<path opacity="0.2" d="M309.776 238.533C309.64 239.235 309.454 239.926 309.221 240.599L309.333 240.431L313.719 245.083L310.13 250.305L304.497 247.45L304.61 247.283C303.726 248.027 302.759 248.656 301.729 249.155H301.922L301.866 255.679L295.79 256.72L293.746 250.557H293.939C292.809 250.412 291.7 250.13 290.632 249.718L290.793 249.835L286.359 254.378L281.354 250.624L284.09 244.747L284.243 244.873C283.537 243.944 282.937 242.932 282.456 241.858V242.06L276.204 242.009L275.206 235.662L281.113 233.529V233.73C281.161 233.268 281.241 232.807 281.33 232.345L309.776 238.533Z" fill="white"/>
<path d="M304.907 233.848C304.601 231.926 303.756 230.141 302.479 228.72C301.202 227.299 299.549 226.304 297.731 225.862C295.912 225.42 294.009 225.55 292.261 226.237C290.513 226.923 288.999 228.134 287.911 229.717C286.823 231.301 286.208 233.185 286.146 235.133C286.083 237.08 286.575 239.003 287.56 240.659C288.544 242.315 289.976 243.629 291.676 244.436C293.376 245.243 295.267 245.506 297.11 245.192C298.336 244.982 299.51 244.522 300.566 243.838C301.621 243.154 302.538 242.26 303.262 241.206C303.986 240.153 304.504 238.96 304.786 237.698C305.069 236.435 305.11 235.127 304.907 233.848Z" fill="#086453"/>
<path d="M302.04 236.598C302.661 232.866 300.265 229.314 296.687 228.666C293.11 228.018 289.706 230.518 289.085 234.251C288.464 237.984 290.861 241.536 294.438 242.184C298.015 242.832 301.419 240.331 302.04 236.598Z" fill="white"/>
<path d="M171.199 275C242.307 275 299.95 271.97 299.95 268.232C299.95 264.495 242.307 261.465 171.199 261.465C100.092 261.465 42.448 264.495 42.448 268.232C42.448 271.97 100.092 275 171.199 275Z" fill="#399AAA"/>
<path d="M51.1868 52.3619L68.0854 254.117C68.3685 257.467 69.8831 260.572 72.3118 262.783C74.7404 264.993 77.8946 266.136 81.1134 265.974L211.997 259.256C213.641 259.172 215.253 258.748 216.739 258.01C218.225 257.272 219.557 256.234 220.657 254.956C221.756 253.678 222.603 252.185 223.147 250.564C223.691 248.943 223.922 247.226 223.826 245.511L212.448 42.2439C212.353 40.5397 211.938 38.8716 211.226 37.3348C210.513 35.7981 209.518 34.4228 208.296 33.2876C207.074 32.1523 205.65 31.2793 204.105 30.7183C202.56 30.1574 200.924 29.9195 199.291 30.0183L62.879 38.2471C61.2143 38.3471 59.5859 38.795 58.0902 39.5639C56.5944 40.3329 55.2619 41.4074 54.1715 42.7237C53.0811 44.04 52.2551 45.5713 51.7424 47.2269C51.2297 48.8825 51.0408 50.6287 51.1868 52.3619Z" fill="#59A3CA"/>
<path d="M53.6091 54.2008L70.5077 255.948C70.7889 259.298 72.303 262.405 74.7321 264.615C77.1612 266.826 80.3165 267.969 83.5357 267.804L214.419 261.087C216.064 261.003 217.676 260.58 219.163 259.842C220.65 259.105 221.981 258.067 223.081 256.788C224.181 255.51 225.028 254.017 225.571 252.396C226.115 250.774 226.345 249.056 226.248 247.341L214.87 44.0828C214.777 42.3782 214.362 40.7095 213.65 39.1723C212.938 37.635 211.943 36.2593 210.721 35.1239C209.499 33.9884 208.074 33.1154 206.529 32.5549C204.983 31.9944 203.347 31.7573 201.713 31.8572L65.3014 40.0859C63.6367 40.186 62.0082 40.6338 60.5125 41.4028C59.0168 42.1718 57.6842 43.2463 56.5939 44.5626C55.5035 45.8789 54.6775 47.4102 54.1648 49.0658C53.6521 50.7214 53.4631 52.4676 53.6091 54.2008Z" fill="#A8DEF2"/>
<path opacity="0.2" d="M66.6853 50.2459L81.0491 248.374L209.261 243.109L196.579 46.7697L66.6853 50.2459Z" fill="#231F20"/>
<path d="M66.6853 50.2459L86.0704 251.8L213.108 244.94L200.305 46.6353L66.6853 50.2459Z" fill="white"/>
<path d="M89.5547 34.9471L91.5584 55.3091L172.519 50.6069L171.473 27.4741C171.336 24.4932 169.501 22.2261 167.377 22.4361L93.1517 28.8007C90.9066 28.9939 89.2489 31.8236 89.5547 34.9471Z" fill="#231F20"/>
<path opacity="0.2" d="M91.5586 55.3091L174.643 50.607L173.871 33.5281L87.1409 38.7593L91.5586 55.3091Z" fill="#231F20"/>
<path d="M143.171 4.60152C138.44 -0.436488 130.505 -0.864719 124.373 1.05812C117.936 3.07333 114.17 9.45481 113.912 15.8027C113.671 21.3445 116.045 26.9031 121.557 29.632C129.25 33.4441 140.202 30.3626 144.579 22.6124C147.661 17.1042 147.645 9.33726 143.171 4.60152ZM134.633 21.0003C132.115 23.0239 128.493 22.3689 126.007 20.4377C125.342 19.9222 124.759 19.3018 124.277 18.5988C119.449 11.3357 131.921 3.88781 136.347 10.9662C138.335 14.0478 137.41 18.7583 134.633 21.0003Z" fill="#231F20"/>
<path d="M91.6877 34.9471L93.6833 55.3091L174.644 50.6069L173.598 27.4741C173.461 24.4932 171.626 22.2261 169.502 22.4361L95.2766 28.8343C93.0315 28.9939 91.3819 31.8236 91.6877 34.9471Z" fill="#494647"/>
<path d="M146.028 4.60152C141.296 -0.436488 133.362 -0.864719 127.23 1.05812C120.793 3.07333 117.027 9.45481 116.769 15.8027C116.52 21.3445 118.902 26.9031 124.414 29.632C132.099 33.4441 143.059 30.3626 147.436 22.6124C150.518 17.1042 150.502 9.33726 146.028 4.60152ZM137.49 21.0003C134.972 23.0239 131.35 22.3689 128.864 20.4377C128.199 19.9222 127.616 19.3018 127.134 18.5988C122.306 11.3357 134.778 3.88781 139.204 10.9662C141.192 14.0478 140.266 18.7583 137.49 21.0003Z" fill="#494647"/>
<path d="M92.8301 46.6354L174.289 42.8484L174.643 50.607L93.6831 55.3091L92.8301 46.6354Z" fill="#606060"/>
<path d="M90.0139 97.7711L104.917 96.6376C105.465 96.5959 106.007 96.783 106.423 97.1576C106.84 97.5322 107.097 98.0639 107.138 98.636L108.031 110.954C108.073 111.524 107.897 112.088 107.541 112.523C107.185 112.957 106.678 113.226 106.132 113.271L91.237 114.548C90.9636 114.572 90.6883 114.539 90.427 114.451C90.1658 114.364 89.9238 114.223 89.715 114.037C89.5062 113.851 89.3348 113.624 89.2107 113.369C89.0866 113.113 89.0122 112.835 88.9919 112.549L88.0987 100.097C88.0768 99.8128 88.109 99.5269 88.1936 99.2557C88.2782 98.9846 88.4134 98.7336 88.5915 98.5174C88.7696 98.3011 88.987 98.1238 89.2311 97.9957C89.4753 97.8676 89.7413 97.7913 90.0139 97.7711V97.7711Z" stroke="#A8A8A8" stroke-width="2" stroke-miterlimit="10"/>
<path d="M118.274 99.8116L137.837 98.3337L169.002 95.9827L176.132 95.4453C176.662 95.4325 177.166 95.2072 177.541 94.8163C177.916 94.4253 178.131 93.8988 178.144 93.3461C178.142 92.7901 177.929 92.2574 177.552 91.8642C177.175 91.471 176.665 91.2492 176.132 91.2469L156.57 92.7248L125.42 95.0758L118.291 95.6132C117.76 95.624 117.254 95.8486 116.879 96.24C116.504 96.6313 116.289 97.159 116.279 97.7124C116.285 98.2671 116.499 98.7972 116.875 99.1895C117.251 99.5818 117.759 99.805 118.291 99.8116H118.274Z" fill="#A8A8A8"/>
<path d="M120.286 111.592L139.849 110.114L171.014 107.763L178.144 107.226C178.674 107.213 179.178 106.988 179.553 106.597C179.928 106.206 180.143 105.679 180.156 105.127C180.154 104.571 179.941 104.038 179.564 103.645C179.187 103.252 178.677 103.03 178.144 103.027L158.582 104.505L127.416 106.856L120.286 107.394C119.757 107.407 119.252 107.632 118.877 108.023C118.503 108.414 118.287 108.94 118.275 109.493C118.277 110.049 118.489 110.582 118.866 110.975C119.243 111.368 119.754 111.59 120.286 111.592Z" fill="#A8A8A8"/>
<path d="M86.465 106.017L94.6004 112.608C95.5822 113.448 97.0628 113.448 97.7549 112.18L108.522 92.1034L110.051 89.2485C111.322 86.8807 107.846 84.7647 106.582 87.1242L95.8236 107.201L94.2947 110.064L97.4491 109.636L89.3136 103.044C88.9288 102.668 88.4209 102.458 87.8933 102.458C87.3657 102.458 86.8579 102.668 86.473 103.044C86.1005 103.441 85.8918 103.975 85.8918 104.531C85.8918 105.086 86.1005 105.62 86.473 106.017H86.465Z" fill="#009777"/>
<path d="M94.6005 138.873L108.747 137.487C109.272 137.436 109.796 137.594 110.213 137.931C110.63 138.268 110.909 138.758 110.992 139.301L112.875 151.468C112.923 151.764 112.911 152.068 112.84 152.359C112.77 152.65 112.642 152.923 112.465 153.16C112.288 153.397 112.065 153.593 111.812 153.735C111.558 153.877 111.279 153.963 110.992 153.987L96.2098 155.246C95.6703 155.294 95.1345 155.119 94.7166 154.76C94.2987 154.401 94.0318 153.885 93.9728 153.324L92.7255 141.283C92.6955 140.996 92.7202 140.705 92.7984 140.429C92.8766 140.152 93.0067 139.894 93.181 139.67C93.3554 139.445 93.5706 139.26 93.8143 139.123C94.0579 138.986 94.3251 138.901 94.6005 138.873V138.873Z" stroke="#A8A8A8" stroke-width="2" stroke-miterlimit="10"/>
<path d="M123.28 140.493L142.842 139.016L174.008 136.665L181.145 136.127C181.675 136.114 182.18 135.889 182.554 135.498C182.929 135.107 183.145 134.581 183.157 134.028C183.153 133.473 182.94 132.941 182.563 132.549C182.187 132.156 181.678 131.933 181.145 131.929L161.583 133.398L130.417 135.749L123.28 136.295C122.746 136.295 122.235 136.516 121.857 136.91C121.48 137.304 121.268 137.838 121.268 138.394C121.268 138.951 121.48 139.485 121.857 139.879C122.235 140.272 122.746 140.493 123.28 140.493Z" fill="#A8A8A8"/>
<path d="M125.291 152.274L144.853 150.796L176.027 148.445L183.157 147.908C183.687 147.895 184.191 147.67 184.566 147.279C184.94 146.888 185.156 146.361 185.169 145.809C185.164 145.253 184.951 144.722 184.575 144.329C184.198 143.936 183.689 143.714 183.157 143.709L163.595 145.187L132.429 147.538L125.291 148.076C124.762 148.091 124.259 148.316 123.885 148.707C123.51 149.097 123.294 149.623 123.28 150.175C123.284 150.73 123.497 151.262 123.873 151.654C124.25 152.047 124.759 152.27 125.291 152.274Z" fill="#A8A8A8"/>
<path d="M91.4701 146.699L99.6056 153.29C100.595 154.088 102.068 154.13 102.768 152.862L113.527 132.785L115.056 129.922C116.319 127.563 112.851 125.447 111.579 127.806L100.829 147.883L99.2917 150.746L102.454 150.318L94.3187 143.726C93.9335 143.347 93.4239 143.136 92.8944 143.136C92.3649 143.136 91.8554 143.347 91.4701 143.726C91.0976 144.123 90.8889 144.657 90.8889 145.212C90.8889 145.768 91.0976 146.302 91.4701 146.699Z" fill="#009777"/>
<path d="M99.5088 183.896L114.428 182.762C114.953 182.723 115.474 182.894 115.883 183.24C116.293 183.586 116.561 184.082 116.633 184.626L118.242 196.877C118.281 197.169 118.263 197.466 118.189 197.751C118.114 198.035 117.985 198.3 117.808 198.531C117.632 198.761 117.413 198.951 117.164 199.09C116.914 199.229 116.641 199.313 116.359 199.337L101.303 200.622C100.77 200.668 100.241 200.496 99.8253 200.145C99.41 199.793 99.1409 199.287 99.0743 198.733L97.5775 186.331C97.543 186.037 97.5662 185.739 97.6458 185.455C97.7255 185.171 97.8598 184.907 98.0405 184.679C98.2213 184.451 98.4448 184.264 98.6973 184.13C98.9497 183.995 99.2259 183.915 99.5088 183.896V183.896Z" stroke="#A8A8A8" stroke-width="2" stroke-miterlimit="10"/>
<path d="M127.625 185.936L147.195 184.459L178.361 182.107L185.491 181.57C186.02 181.557 186.525 181.332 186.9 180.941C187.274 180.55 187.49 180.024 187.502 179.471C187.5 178.915 187.288 178.382 186.911 177.989C186.534 177.596 186.024 177.374 185.491 177.372L165.928 178.858L134.763 181.209L127.625 181.746C127.096 181.761 126.592 181.987 126.218 182.378C125.844 182.768 125.628 183.294 125.613 183.846C125.617 184.401 125.831 184.932 126.207 185.325C126.584 185.718 127.093 185.94 127.625 185.945V185.936Z" fill="#A8A8A8"/>
<path d="M129.645 197.717L149.207 196.239L180.373 193.888L187.502 193.351C188.033 193.34 188.538 193.115 188.913 192.724C189.289 192.333 189.504 191.805 189.514 191.251C189.508 190.697 189.294 190.167 188.918 189.774C188.542 189.382 188.034 189.159 187.502 189.152L167.94 190.613L136.774 192.964L129.645 193.502C129.115 193.515 128.611 193.74 128.236 194.131C127.861 194.522 127.645 195.048 127.633 195.601C127.635 196.157 127.848 196.69 128.225 197.083C128.601 197.476 129.112 197.698 129.645 197.7V197.717Z" fill="#A8A8A8"/>
<path d="M95.8231 192.141L103.959 198.733C104.94 199.573 106.421 199.573 107.113 198.305L117.872 178.228L119.401 175.373C120.672 173.014 117.196 170.889 115.932 173.249L105.174 193.334L103.637 196.189L106.799 195.769L98.6636 189.169C98.2779 188.794 97.7704 188.586 97.2433 188.586C96.7163 188.586 96.2088 188.794 95.8231 189.169C95.4466 189.564 95.2354 190.098 95.2354 190.655C95.2354 191.212 95.4466 191.747 95.8231 192.141Z" fill="#009777"/>
<path opacity="0.2" d="M217.518 253.127C217.156 254.495 216.81 255.872 216.552 257.275C216.504 257.56 216.447 257.862 216.399 258.165C216.277 259.078 215.982 259.958 215.53 260.751C215.466 260.852 215.385 260.936 215.313 261.028C218.472 260.649 221.373 259.023 223.419 256.482C225.465 253.941 226.5 250.679 226.313 247.366L226.136 244.167L226.08 244.117C225.656 243.739 225.213 243.385 224.752 243.059L224.897 242.874C224.897 242.874 220.72 235.762 220.535 235.468C216.954 229.649 216.745 229.591 212.311 224.477C211.448 223.475 210.581 222.484 209.712 221.505C209.962 219.901 210.235 218.306 210.517 216.685C211.957 209.657 213.864 202.755 215.474 195.777C216.278 192.242 217.083 188.623 217.646 184.971C218.034 182.47 218.266 179.946 218.338 177.414L219.747 177.54V177.355C219.449 169.412 219.014 159.268 220.149 151.418C220.334 150.124 220.551 148.831 220.777 147.538L219.264 120.484L217.18 120.232C217.19 119.776 217.096 119.325 216.906 118.914C216.159 117.387 214.881 116.215 213.333 115.639C213.51 114.59 213.744 113.54 214.017 112.507C215.433 111.552 216.735 110.425 217.896 109.149C217.892 109.176 217.892 109.205 217.896 109.233C218.141 109.185 218.383 109.121 218.62 109.04L216.826 76.9138C211.63 75.295 206.137 75.007 200.812 76.0741C198.977 76.452 196.917 77.1153 195.549 78.5259L195.501 78.5763C194.909 79.2274 194.543 80.0672 194.463 80.961C194.393 81.9229 194.548 82.8881 194.914 83.7739C195.282 84.603 195.805 85.3479 196.451 85.9654C196.447 85.982 196.447 85.9992 196.451 86.0158C195.693 89.0703 195.494 92.2465 195.863 95.3781C195.927 96.1182 196.072 96.848 196.298 97.5528C196.298 97.6704 196.298 97.7879 196.298 97.8971C196.22 98.8857 196.191 99.8778 196.209 100.87C196.259 103.354 196.547 105.826 197.07 108.25C197.135 108.586 197.215 108.914 197.304 109.233C197.304 109.35 197.376 109.468 197.408 109.577C197.441 109.686 197.529 109.98 197.601 110.173C197.674 110.366 197.698 110.45 197.754 110.593C197.811 110.736 197.883 110.912 197.955 111.063C198.079 111.351 198.219 111.632 198.374 111.903L198.559 112.23C198.664 112.39 198.784 112.533 198.897 112.684L199.106 112.944C199.227 113.087 199.356 113.221 199.492 113.355L199.734 113.565C200.408 114.153 201.2 114.575 202.051 114.8C202.55 114.926 203.041 115.018 203.532 115.094C203.532 115.186 203.532 115.253 203.532 115.278L203.46 115.715C202.83 115.936 202.221 116.217 201.641 116.555C200.91 117.002 200.322 117.665 199.951 118.461C198.503 118.368 197.046 118.293 195.582 118.251H195.026H194.367C193.448 118.199 192.538 118.462 191.775 118.998C191.229 119.222 190.727 119.549 190.295 119.964C189.045 121.212 187.911 122.582 186.907 124.053L186.03 125.279C185.644 125.816 185.225 126.362 184.847 126.882C184.598 127.21 184.34 127.537 184.042 127.856C182.071 130.199 180.019 132.441 177.87 134.641L175.738 136.824C173.959 138.621 171.835 140.376 170.105 142.383C169.765 142.783 169.448 143.203 169.155 143.642C168.414 144.675 167.98 145.914 167.908 147.202C167.888 147.482 167.888 147.763 167.908 148.042C168.033 149.26 168.278 150.462 168.64 151.627C168.729 151.921 168.826 152.224 168.93 152.518C169.532 154.219 170.242 155.877 171.055 157.48L171.344 158.068C171.65 158.656 171.948 159.235 172.254 159.806C172.382 160.058 172.511 160.301 172.64 160.536L173.324 161.829L173.646 162.451L174.45 163.987L175.875 166.784L176.969 168.899L177.524 169.974C178.482 171.805 179.407 173.551 180.091 174.752C180.014 175.369 180.064 175.995 180.236 176.591C180.368 177.08 180.602 177.533 180.922 177.917C181.242 178.3 181.64 178.605 182.087 178.808C182.481 179.004 182.89 179.164 183.31 179.286C183.197 179.588 183.093 179.882 182.972 180.185C180.606 186.297 179.27 192.738 177.235 198.951C176.577 200.852 176.126 202.823 175.891 204.829C175.569 208.12 176.164 211.336 178.723 213.922C178.957 214.158 179.206 214.384 179.464 214.603C180.984 215.904 182.739 216.811 184.348 217.961L185.153 218.557C186.851 219.909 188.508 221.286 190.118 222.756C190.649 223.234 191.18 223.73 191.727 224.234C193.658 226.089 195.509 228.037 197.32 230.011C197.32 231.455 197.32 232.899 197.32 234.343C197.111 242.899 195.968 251.909 194.817 260.373L187.02 260.835H186.472C185.866 260.849 185.258 260.827 184.654 260.768H184.171H183.543H183.077H183.036C182.896 260.776 182.756 260.793 182.618 260.818H182.489L182.143 260.91H182.047C181.905 260.958 181.767 261.02 181.636 261.095L181.54 261.145L181.234 261.355L181.129 261.448C181.002 261.557 180.883 261.678 180.775 261.809C180.533 262.119 180.34 262.467 180.204 262.842L205.447 261.548C205.447 261.448 205.447 261.347 205.447 261.246H206.179C206.526 261.246 207.314 256.771 207.419 256.259C207.746 254.652 208.014 253.037 208.223 251.414C208.527 248.626 208.685 245.823 208.698 243.017L210.525 245.267C211.587 246.569 212.673 247.853 213.8 249.063C214.894 250.256 216.058 251.378 217.284 252.421L217.357 252.371C217.445 252.287 217.606 252.111 217.815 251.867C217.815 251.867 217.815 251.909 217.815 251.934C217.814 252.138 217.792 252.34 217.751 252.539C217.649 252.74 217.571 252.936 217.518 253.127ZM189.506 139.62C189.385 146.657 188.806 153.643 188.114 160.612C188.114 160.914 187.68 162.845 187.197 165.113L183.358 157.127C182.698 155.742 182.079 154.356 181.548 152.929C181.097 151.703 180.292 150.519 180.3 149.15C180.338 148.514 180.501 147.892 180.777 147.323C181.054 146.754 181.44 146.25 181.91 145.842C184.429 143.323 186.988 140.804 189.49 138.201C189.514 138.663 189.514 139.142 189.506 139.62ZM198.068 203.981C197.977 205.94 197.894 207.899 197.819 209.858C196.209 208.582 194.6 207.339 192.91 206.198C192.105 205.652 194.519 199.9 194.793 199.111C195.928 195.861 197.352 192.696 198.744 189.513C198.513 194.333 198.288 199.156 198.068 203.981Z" fill="#231F20"/>
<path d="M174.579 139.914C173.195 141.593 172.165 143.273 172.407 145.565C172.873 150.318 175.625 155.255 177.83 159.361C178.434 160.511 183.045 169.706 184.887 172.838L190.52 168.858C191.347 168.387 192.022 167.671 192.46 166.8C192.95 165.524 192.355 164.105 191.768 162.871C190.464 160.145 189.163 157.413 187.865 154.676C187.197 153.282 186.585 151.896 186.054 150.477C185.604 149.26 184.799 148.067 184.799 146.699C184.836 146.063 184.999 145.442 185.275 144.874C185.552 144.307 185.938 143.805 186.408 143.399C190.263 139.478 194.23 135.682 197.907 131.576C201.013 128.125 205.045 123.23 201.384 118.545C200.807 117.858 200.114 117.289 199.34 116.865C198.608 116.397 197.745 116.205 196.894 116.322C196.043 116.438 195.256 116.855 194.664 117.503C192.25 119.737 190.536 122.886 188.42 125.413C185.797 128.545 182.972 131.484 180.116 134.381C178.393 136.152 176.261 137.907 174.579 139.914Z" fill="#008964"/>
<path opacity="0.2" d="M179.866 159.932C177.693 155.826 174.909 150.897 174.442 146.144C174.225 143.869 175.247 142.139 176.615 140.494C178.296 138.478 180.429 136.732 182.207 134.927C185.056 132.03 187.888 129.049 190.512 125.959C192.62 123.44 194.374 120.291 196.748 118.049C197.46 117.319 198.406 116.891 199.404 116.848C198.672 116.381 197.809 116.189 196.958 116.305C196.107 116.421 195.32 116.838 194.728 117.487C192.314 119.72 190.6 122.869 188.484 125.396C185.861 128.528 183.036 131.467 180.179 134.364C178.409 136.161 176.277 137.916 174.595 139.923C173.211 141.602 172.181 143.281 172.422 145.574C172.889 150.326 175.641 155.263 177.846 159.369C178.449 160.52 183.06 169.714 184.903 172.846L186.134 172.006C183.986 168.102 180.397 160.939 179.866 159.932Z" fill="#231F20"/>
<path d="M184.967 264.101C185.595 264.941 186.713 265.042 187.695 265.058L208.062 265.47C208.321 265.5 208.583 265.444 208.81 265.31C209.04 265.09 209.188 264.793 209.229 264.471C209.681 262.534 209.887 260.544 209.84 258.551C208.738 257.409 207.072 257.426 205.575 257.518L190.858 258.358C188.967 258.475 186.601 257.594 185.152 259.365C184.627 260.024 184.324 260.844 184.29 261.7C184.257 262.557 184.495 263.4 184.967 264.101Z" fill="#663B1E"/>
<path d="M232.75 248.912C233.234 247.743 233.43 246.468 233.322 245.2C233.04 243.748 231.624 242.58 230.594 241.657C229.733 240.913 228.818 240.239 227.858 239.642C227.513 239.372 227.098 239.217 226.667 239.197C226.265 239.269 225.892 239.465 225.597 239.759C223.912 241.03 222.546 242.707 221.613 244.646C221.403 245.1 221.249 245.579 221.155 246.073C221.082 246.398 221.074 246.734 221.131 247.062C221.188 247.39 221.308 247.702 221.485 247.979C221.831 248.45 222.233 248.819 222.241 249.491C222.224 249.894 222.153 250.292 222.032 250.675C221.662 252.043 221.316 253.421 221.066 254.814C220.948 256.032 220.6 257.213 220.044 258.291C219.572 258.916 218.976 259.429 218.298 259.794C216.737 260.784 215.288 263.992 217.493 265.075C218.152 265.347 218.867 265.439 219.569 265.344C221.372 265.251 223.191 265.411 224.993 265.268C226.393 265.159 227.158 264.042 227.721 262.816C229.673 258.295 231.353 253.651 232.75 248.912Z" fill="#663B1E"/>
<g opacity="0.2">
<path opacity="0.2" d="M192.749 258.375L207.443 257.535C206.832 257.489 206.219 257.489 205.608 257.535L191.438 258.375C191.875 258.399 192.313 258.399 192.749 258.375Z" fill="#231F20"/>
<path opacity="0.2" d="M189.595 265.058C188.605 265.058 187.495 264.949 186.867 264.101C186.396 263.403 186.159 262.562 186.192 261.709C186.225 260.856 186.528 260.038 187.052 259.382C187.565 258.762 188.29 258.376 189.072 258.307C187.648 258.198 186.191 258.156 185.185 259.382C184.663 260.039 184.363 260.857 184.329 261.709C184.296 262.562 184.532 263.402 185 264.101C185.628 264.941 186.746 265.042 187.728 265.058L208.095 265.47C208.237 265.482 208.379 265.482 208.521 265.47L189.595 265.058Z" fill="#231F20"/>
</g>
<g opacity="0.2">
<path opacity="0.2" d="M219.369 265.075C217.148 263.975 218.564 260.784 220.173 259.794C220.851 259.429 221.447 258.916 221.919 258.291C222.479 257.215 222.827 256.033 222.941 254.814C223.191 253.421 223.537 252.043 223.907 250.675C224.028 250.292 224.099 249.894 224.116 249.491C224.116 248.794 223.714 248.45 223.368 247.979C223.19 247.702 223.069 247.391 223.011 247.063C222.953 246.735 222.959 246.398 223.03 246.073C223.132 245.581 223.285 245.103 223.489 244.646C224.423 242.709 225.789 241.033 227.472 239.759C227.56 239.692 227.641 239.616 227.729 239.558C227.423 239.332 227.059 239.206 226.683 239.197C226.281 239.269 225.908 239.465 225.613 239.759C223.928 241.03 222.562 242.707 221.63 244.646C221.42 245.1 221.265 245.579 221.171 246.073C221.099 246.398 221.091 246.734 221.147 247.062C221.204 247.39 221.324 247.702 221.501 247.979C221.847 248.45 222.249 248.819 222.257 249.491C222.24 249.894 222.17 250.292 222.048 250.675C221.678 252.043 221.332 253.421 221.083 254.814C220.964 256.032 220.617 257.213 220.061 258.291C219.588 258.916 218.993 259.429 218.314 259.794C216.753 260.784 215.305 263.992 217.51 265.075C218.164 265.344 218.872 265.436 219.57 265.344C219.851 265.344 220.133 265.344 220.423 265.344C220.059 265.316 219.703 265.225 219.369 265.075Z" fill="#231F20"/>
</g>
<path d="M203.741 97.5864C203.999 97.5195 204.234 97.3811 204.423 97.186C204.611 96.9909 204.745 96.7463 204.811 96.4781C205.266 95.0955 205.558 93.6603 205.68 92.2042C205.994 89.3409 206.839 85.109 205.198 82.5816C203.894 80.5831 201.504 81.4816 200.917 83.5808C200.159 86.6353 199.959 89.8115 200.329 92.9431C200.389 94.0704 200.697 95.1681 201.23 96.1506C201.482 96.6079 201.849 96.9839 202.292 97.2373C202.735 97.4906 203.237 97.6114 203.741 97.5864Z" fill="#663B1E"/>
<path d="M186.577 176.339C186.981 176.533 187.398 176.696 187.824 176.826C189.699 177.397 191.083 176.826 192.588 175.55C193.867 174.505 194.792 173.06 195.227 171.427C195.436 170.612 195.461 169.758 195.302 168.931C195.143 168.103 194.804 167.326 194.31 166.658C193.801 166.001 193.114 165.52 192.339 165.277C191.563 165.035 190.736 165.042 189.965 165.297C189.303 165.592 188.688 165.989 188.138 166.473C186.809 167.51 185.759 168.886 185.088 170.47C184.539 171.596 184.41 172.894 184.726 174.114C184.862 174.603 185.097 175.055 185.417 175.439C185.736 175.823 186.132 176.13 186.577 176.339Z" fill="#DD9B6F"/>
<path d="M217.493 121.483C215.495 121.926 213.448 122.082 211.41 121.945C210.323 121.895 206.968 122.222 206.533 120.929C206.439 120.586 206.409 120.227 206.445 119.871C206.63 118.772 206.886 117.686 207.209 116.622C207.451 115.354 207.764 114.103 207.941 112.818C207.982 112.541 208.199 109.846 208.481 109.804L219.046 108.25C217.613 112.491 217.083 117.007 217.493 121.483Z" fill="#DD9B6F"/>
<path d="M239.936 122.726L240.741 122.928C247.495 124.674 254.305 126.132 261.172 127.302C264.246 127.823 267.312 128.243 270.41 128.553C272.784 128.822 275.464 129.208 277.041 131.308C277.268 131.61 277.465 131.937 277.628 132.282C277.7 132.428 277.761 132.58 277.813 132.735C278.127 133.561 278.165 134.474 277.922 135.325C277.678 136.177 277.166 136.918 276.469 137.429C275.595 137.882 274.629 138.107 273.653 138.084C269.809 138.284 265.955 138.203 262.122 137.84C250.067 136.707 238.287 133.516 226.482 130.997C224.929 130.669 223.263 130.258 222.265 128.965C220.736 126.95 221.613 124.254 222.362 122.105C222.578 121.412 222.864 120.745 223.215 120.115C224.824 117.453 228.469 119.426 230.642 120.115C233.724 121.03 236.822 121.903 239.936 122.726Z" fill="#009777"/>
<path opacity="0.2" d="M276.437 135.892C275.563 136.345 274.597 136.57 273.621 136.547C269.776 136.747 265.923 136.666 262.089 136.304C250.067 135.178 238.287 131.962 226.482 129.452C224.929 129.124 223.263 128.713 222.265 127.42C221.824 126.845 221.545 126.153 221.46 125.421C221.352 126.037 221.368 126.669 221.506 127.277C221.645 127.886 221.903 128.458 222.265 128.956C223.247 130.25 224.929 130.636 226.482 130.988C238.287 133.507 250.067 136.707 262.089 137.84C265.923 138.203 269.776 138.284 273.621 138.084C274.597 138.107 275.563 137.882 276.437 137.429C277.046 136.991 277.516 136.374 277.787 135.656C278.058 134.938 278.117 134.152 277.958 133.398C277.891 133.904 277.721 134.388 277.459 134.819C277.196 135.249 276.848 135.615 276.437 135.892Z" fill="#231F20"/>
<path d="M191.333 166.54C190.206 170.335 188.87 174.047 187.454 177.708C185.088 183.82 183.752 190.303 181.709 196.483C180.043 201.571 179.101 207.323 183.197 211.454C185.112 213.377 187.551 214.435 189.635 216.08C191.896 217.886 194.101 219.733 196.193 221.748C200.587 225.947 204.594 230.615 208.658 235.183C212.866 239.927 216.874 245.922 221.702 249.986C221.855 250.121 229.427 240.422 229.427 240.422C229.427 240.422 225.251 233.31 225.066 233.008C221.493 227.189 221.275 227.131 216.842 222.017C212.625 217.138 208.352 212.302 203.403 208.221C201.48 206.634 199.484 205.148 197.44 203.737C196.636 203.192 199.05 197.448 199.331 196.651C202.14 188.607 206.727 181.058 208.231 172.56C208.778 169.445 209.591 166.532 206.276 165.801C201.79 164.814 197.221 164.288 192.636 164.231C192.461 164.212 192.283 164.25 192.129 164.34C191.968 164.496 191.861 164.702 191.824 164.928C191.647 165.465 191.494 166.003 191.333 166.54Z" fill="#23505B"/>
<path d="M195.871 168.228C195.514 171.115 194.188 173.777 192.13 175.743C190.862 176.829 189.272 177.422 187.631 177.422" stroke="#2F6270" stroke-miterlimit="10"/>
<path opacity="0.2" d="M210.661 235.183C206.598 230.615 202.614 225.947 198.197 221.748C196.104 219.733 193.907 217.886 191.646 216.08C189.578 214.401 187.14 213.377 185.209 211.454C181.113 207.323 182.054 201.571 183.72 196.483C185.756 190.261 187.1 183.82 189.458 177.708C190.882 174.047 192.21 170.335 193.336 166.54C193.497 166.003 193.658 165.465 193.803 164.928C193.843 164.701 193.953 164.495 194.117 164.34C194.152 164.321 194.19 164.307 194.229 164.298C193.682 164.298 193.135 164.239 192.62 164.231C192.444 164.208 192.266 164.246 192.113 164.34C191.952 164.496 191.844 164.702 191.807 164.928C191.654 165.465 191.501 166.003 191.341 166.54C190.214 170.335 188.878 174.047 187.462 177.708C185.096 183.82 183.76 190.303 181.716 196.483C180.051 201.571 179.109 207.323 183.205 211.454C185.12 213.377 187.558 214.435 189.643 216.08C191.904 217.886 194.109 219.733 196.201 221.748C200.595 225.947 204.602 230.615 208.666 235.183C212.874 239.927 216.882 245.922 221.71 249.986C222.047 249.683 222.354 249.346 222.627 248.979C218.258 244.965 214.548 239.549 210.661 235.183Z" fill="#231F20"/>
<path d="M202.574 201.529C202.413 205.14 202.263 208.75 202.123 212.361C201.882 218.868 201.737 225.359 201.737 231.866C201.528 240.422 200.377 249.432 199.235 257.896C202.719 258.971 206.992 259.03 210.597 258.794C210.943 258.794 211.74 254.319 211.844 253.807C212.166 252.211 212.432 250.591 212.649 248.962C213.18 244.562 213.091 240.145 213.212 235.712C213.309 231.989 213.451 228.272 213.639 224.561C213.921 221.095 214.386 217.647 215.031 214.233C216.463 207.214 218.378 200.303 219.988 193.325C221.895 185.03 223.762 176.263 222.402 167.716C222.331 166.994 222.108 166.297 221.75 165.675C221.393 165.185 220.94 164.779 220.422 164.483C217.559 162.626 214.266 161.616 210.895 161.561C208.481 161.561 205.632 162.342 204.65 164.844C204.324 165.82 204.166 166.85 204.184 167.883C203.668 179.093 203.073 190.303 202.574 201.529Z" fill="#2F6270"/>
<path opacity="0.2" d="M201.48 258.022C202.631 249.558 203.781 240.548 203.991 231.992C203.991 225.485 204.135 218.994 204.377 212.487C204.511 208.876 204.661 205.266 204.827 201.655C205.326 190.437 205.914 179.227 206.397 168.009C206.387 166.976 206.545 165.948 206.863 164.97C207.708 162.837 209.873 161.947 211.997 161.746C211.635 161.746 211.273 161.695 210.903 161.687C208.489 161.687 205.64 162.459 204.659 164.97C204.332 165.946 204.174 166.975 204.192 168.009C203.709 179.227 203.113 190.437 202.582 201.655C202.421 205.266 202.271 208.876 202.132 212.487C201.89 218.994 201.746 225.485 201.746 231.992C201.536 240.548 200.386 249.558 199.243 258.022C202.223 258.825 205.301 259.159 208.376 259.013C206.047 258.987 203.73 258.654 201.48 258.022Z" fill="#231F20"/>
<path d="M218.001 77.5855C215.112 77.0565 211.788 76.9977 209.229 78.7022C204.232 82.0609 201.625 88.0142 200.877 93.9926C200.437 97.9419 200.649 101.941 201.504 105.815C202.14 108.83 203.411 111.516 206.485 112.331C217.912 115.354 227.874 103.095 229.121 92.2545C229.492 88.9966 229.186 85.5371 227.327 82.7662C225.203 79.6511 221.461 78.232 218.001 77.5855Z" fill="#EDB188"/>
<path d="M215.498 171.998C215.384 174.905 216.265 177.759 217.984 180.05C219.055 181.355 220.53 182.229 222.153 182.519" stroke="#488593" stroke-miterlimit="10"/>
<path opacity="0.2" d="M202.993 107.31C202.134 103.433 201.922 99.4308 202.365 95.4788C203.106 89.5004 205.721 83.5303 210.71 80.1968C213.269 78.5175 216.6 78.5175 219.481 79.0801C222.121 79.4781 224.633 80.5226 226.812 82.1281C224.647 79.4663 221.179 78.1816 217.96 77.5855C215.071 77.0565 211.748 76.9977 209.189 78.7022C204.192 82.0609 201.585 88.0142 200.836 93.9926C200.397 97.9419 200.609 101.941 201.464 105.815C201.955 108.133 202.824 110.24 204.586 111.474C203.788 110.214 203.246 108.797 202.993 107.31Z" fill="#231F20"/>
<path d="M224.623 148.966C223.48 156.875 223.931 167.119 224.229 175.088C224.229 175.088 200.313 172.787 197.537 172.367L197.046 172.292C194.632 171.889 192.322 171.326 189.957 170.847C189.957 170.847 192.548 158.966 192.62 158.177C193.312 151.182 193.9 144.205 194.02 137.185C194.077 133.759 194.02 130.333 193.932 126.908C193.875 123.885 193.932 120.493 195.251 117.738C196.137 115.916 197.625 115.74 199.444 115.782C207.644 115.992 215.771 117.134 223.923 118.074C224.837 118.128 225.739 118.329 226.594 118.67C229.097 119.829 228.799 122.776 228.574 125.136C227.793 133.138 225.774 140.997 224.623 148.966Z" fill="#009777"/>
<path d="M219.151 122.105C220.584 120.803 222.37 118.561 221.388 116.462C218.974 111.231 210.171 111.617 206.051 114.094C203.476 115.648 203.267 119.561 204.723 121.987C207.475 126.572 214.291 125.539 218.009 123.003C218.408 122.731 218.79 122.431 219.151 122.105Z" fill="#008964"/>
<path d="M217.204 120.753C218.258 119.796 219.554 118.158 218.813 116.613C217.059 112.776 210.581 113.053 207.548 114.875C205.657 116.017 205.504 118.889 206.574 120.669C208.594 124.028 213.599 123.28 216.327 121.416C216.635 121.218 216.928 120.997 217.204 120.753Z" fill="#DD9B6F"/>
<path opacity="0.2" d="M199.533 172.367L199.042 172.292C196.628 171.889 194.318 171.326 191.944 170.847C191.944 170.847 194.535 158.966 194.616 158.177C195.3 151.182 195.887 144.205 196.008 137.185C196.064 133.759 196.008 130.333 195.928 126.908C195.863 123.885 195.928 120.493 197.239 117.738C197.501 117.161 197.914 116.674 198.432 116.334C198.949 115.993 199.549 115.813 200.16 115.816H199.444C197.625 115.774 196.137 115.95 195.252 117.772C193.916 120.526 193.876 123.918 193.932 126.941C194.004 130.367 194.077 133.793 194.02 137.219C193.9 144.255 193.312 151.233 192.62 158.21C192.548 159 189.933 170.873 189.957 170.881C192.323 171.36 194.664 171.922 197.046 172.325L197.537 172.401C200.313 172.821 224.229 175.155 224.229 175.121V174.937C218.427 174.357 201.818 172.712 199.533 172.367Z" fill="#231F20"/>
<path d="M229.894 99.2994C228.486 102.776 225.943 106.134 222.378 106.806C222.088 104.178 222.981 101.625 223.424 99.0726C223.899 96.2849 224.567 90.8187 222.466 88.518C221.662 87.6783 220.27 87.6783 219.248 87.502C217.805 87.2333 216.364 86.9926 214.926 86.7799C209.978 86.0662 201.955 87.1158 199.428 81.3388C199.018 80.5106 198.854 79.5737 198.958 78.6478C199.061 77.7219 199.426 76.8492 200.007 76.1413C201.367 74.6887 203.468 74.0253 205.318 73.6223C214.492 71.7498 229.66 73.6223 231.616 85.47C232.3 90.157 231.704 94.9505 229.894 99.2994Z" fill="#774B2A"/>
<path opacity="0.2" d="M223.408 105.135C223.126 102.515 224.011 99.9543 224.454 97.4017C224.937 94.614 225.597 89.1478 223.496 86.8555C222.692 86.0158 221.3 86.0158 220.278 85.8395C218.845 85.5624 217.405 85.3273 215.956 85.1174C211.016 84.3952 202.985 85.4448 200.458 79.6679C199.934 78.51 199.842 77.1897 200.201 75.965L200.007 76.1413C199.426 76.8492 199.061 77.7219 198.958 78.6478C198.854 79.5737 199.018 80.5106 199.428 81.3388C201.955 87.1158 209.978 86.0662 214.926 86.7799C216.37 86.9926 217.81 87.2333 219.248 87.502C220.294 87.7035 221.662 87.6616 222.466 88.518C224.567 90.8187 223.899 96.2849 223.424 99.0726C222.981 101.592 222.088 104.178 222.378 106.806C225.315 106.252 227.56 103.867 229.049 101.105C227.733 103.153 225.714 104.595 223.408 105.135Z" fill="#231F20"/>
<path d="M285.57 73.1017L272.905 102.104L290.045 104.472L285.57 73.1017Z" fill="#EEEAED"/>
<path d="M286.15 85.9234C287.179 85.9724 288.206 85.798 289.167 85.4112C292.386 84.0593 292.016 78.4923 291.622 75.6543C291.443 74.0213 290.841 72.47 289.882 71.1667C288.922 69.8635 287.64 68.8575 286.174 68.2568C285.346 67.8928 284.431 67.7991 283.551 67.9881C281.628 68.4751 280.614 70.801 279.753 72.4467C278.651 74.4491 278.058 76.7124 278.031 79.0213C278.071 83.0769 282.336 85.7807 286.15 85.9234Z" fill="#231F20"/>
<path d="M272.647 102.885L251.813 242.564L269.348 249.592L290.045 105.135L272.647 102.885Z" fill="#EF9426"/>
<path opacity="0.2" d="M256.923 247.283L278.61 103.657L272.647 102.885L251.813 242.564L256.923 247.283Z" fill="white"/>
<path opacity="0.2" d="M263.651 248.534L284.911 104.472L290.045 105.135L269.348 249.592L263.651 248.534Z" fill="#231F20"/>
<path d="M251.814 242.564L269.935 245.418L267.183 264.966C267.062 265.817 266.622 266.584 265.96 267.097C265.297 267.61 264.467 267.828 263.651 267.703L251.13 265.797C250.717 265.73 250.321 265.578 249.966 265.349C249.611 265.119 249.303 264.818 249.062 264.463C248.82 264.107 248.649 263.705 248.56 263.279C248.47 262.854 248.462 262.414 248.538 261.985L251.814 242.564Z" fill="#68838C"/>
<path d="M247.339 256.561L269.211 259.945L267.199 269.836L246.816 267.124L247.339 256.561Z" fill="#C95B59"/>
<path d="M248.176 252.186L270.442 255.629L271.392 250.784L249.069 247.492" stroke="#506D75" stroke-miterlimit="10"/>
<path d="M285.136 103.943C285.19 104.645 285.039 105.347 284.704 105.958C284.369 106.57 283.865 107.061 283.258 107.369C282.651 107.677 281.969 107.787 281.301 107.684C280.633 107.581 280.011 107.27 279.515 106.793C279.019 106.315 278.673 105.692 278.521 105.006C278.37 104.32 278.42 103.602 278.665 102.946C278.911 102.29 279.34 101.727 279.898 101.329C280.455 100.932 281.114 100.719 281.789 100.718C282.211 100.7 282.633 100.77 283.031 100.922C283.428 101.074 283.792 101.307 284.103 101.606C284.414 101.906 284.665 102.266 284.843 102.667C285.02 103.068 285.12 103.502 285.136 103.943Z" fill="#EEEAED"/>
<path d="M290.045 104.774C290.012 105.312 289.829 105.828 289.518 106.259C289.208 106.689 288.783 107.016 288.297 107.198C287.811 107.38 287.284 107.41 286.782 107.283C286.28 107.157 285.824 106.88 285.471 106.487C285.118 106.093 284.883 105.601 284.794 105.07C284.706 104.539 284.769 103.992 284.974 103.498C285.18 103.004 285.52 102.583 285.952 102.287C286.384 101.992 286.889 101.835 287.405 101.835C287.764 101.847 288.116 101.933 288.443 102.087C288.769 102.241 289.064 102.461 289.309 102.734C289.554 103.007 289.745 103.327 289.871 103.677C289.998 104.028 290.057 104.4 290.045 104.774Z" fill="#EEEAED"/>
<path d="M278.715 103.288C278.762 103.924 278.624 104.56 278.319 105.113C278.014 105.667 277.557 106.111 277.006 106.389C276.455 106.667 275.837 106.765 275.233 106.67C274.628 106.576 274.064 106.294 273.616 105.86C273.167 105.427 272.854 104.862 272.717 104.24C272.58 103.619 272.627 102.968 272.85 102.374C273.073 101.78 273.462 101.27 273.967 100.91C274.472 100.55 275.069 100.358 275.681 100.357C276.455 100.328 277.209 100.62 277.778 101.169C278.346 101.718 278.683 102.48 278.715 103.288Z" fill="#EEEAED"/>
<path d="M225.894 95.9827C228.003 96.033 228.751 98.3337 228.156 100.181C227.303 102.818 223.183 103.985 220.817 103.876C220.584 103.888 220.353 103.824 220.157 103.691C220.041 103.567 219.956 103.417 219.907 103.252C219.858 103.087 219.847 102.912 219.875 102.742C220.035 101.591 220.513 100.514 221.251 99.6436C221.831 98.8543 222.257 97.746 223.062 97.1246C223.844 96.4516 224.804 96.0443 225.814 95.9575L225.894 95.9827Z" fill="#EDB188"/>
<path d="M283.277 141.258C283.57 141.41 283.877 141.528 284.194 141.61C285.538 141.997 286.407 141.316 287.268 139.931C288.046 138.624 288.479 137.127 288.524 135.59C288.603 133.944 288.165 132.317 287.276 130.955C286.407 129.771 285.096 129.276 284.138 130.031C283.705 130.411 283.337 130.865 283.052 131.375C282.239 132.653 281.708 134.105 281.499 135.623C281.274 136.842 281.355 138.1 281.732 139.276C281.977 140.123 282.532 140.835 283.277 141.258Z" fill="#DD9B6F"/>
<path d="M216.238 96.4697C216.238 97.7712 215.651 98.8207 214.919 98.8207C214.186 98.8207 213.591 97.7712 213.591 96.4697C213.591 95.1682 214.186 94.1102 214.919 94.1102C215.651 94.1102 216.238 95.1682 216.238 96.4697Z" fill="#442C1B"/>
<path d="M206.622 96.1338C206.622 97.4353 206.027 98.4848 205.294 98.4848C204.562 98.4848 203.975 97.4353 203.975 96.1338C203.975 94.8323 204.57 93.7743 205.294 93.7743C206.019 93.7743 206.622 94.8323 206.622 96.1338Z" fill="#442C1B"/>
<path d="M204.586 103.523C205.781 103.964 207.025 104.246 208.287 104.363C211.41 104.64 215.401 103.195 215.401 103.195C215.401 103.195 214.508 108.233 211.764 109.182C209.02 110.131 206.413 109.82 205.326 108.452C204.24 107.083 204.586 103.523 204.586 103.523Z" fill="white"/>
<path d="M214.242 90.2813C215.685 90.4705 217.064 91.0144 218.265 91.8683C218.402 91.9437 218.561 91.9622 218.71 91.9202C218.86 91.8781 218.988 91.7786 219.07 91.6416C219.14 91.4985 219.157 91.3332 219.117 91.178C219.077 91.0227 218.983 90.8886 218.853 90.8019C217.468 89.8359 215.881 89.2312 214.226 89.0386C214.066 89.0408 213.914 89.1079 213.801 89.2255C213.689 89.3431 213.624 89.502 213.622 89.6684C213.626 89.8341 213.691 89.9918 213.804 90.109C213.916 90.2262 214.067 90.2939 214.226 90.2981L214.242 90.2813Z" fill="#663B1E"/>
<path d="M203.009 90.4829C204.256 90.0388 205.592 89.9376 206.888 90.189C207.042 90.2335 207.208 90.2121 207.347 90.1294C207.487 90.0468 207.589 89.9096 207.632 89.7482C207.675 89.5867 207.654 89.4142 207.575 89.2685C207.496 89.1229 207.364 89.016 207.21 88.9715C205.703 88.6689 204.147 88.77 202.687 89.2654C202.611 89.2874 202.539 89.325 202.476 89.376C202.413 89.4269 202.361 89.4903 202.322 89.5624C202.283 89.6345 202.257 89.714 202.248 89.7963C202.238 89.8786 202.244 89.9621 202.265 90.042C202.286 90.122 202.322 90.1968 202.371 90.2622C202.42 90.3276 202.48 90.3824 202.549 90.4233C202.619 90.4643 202.695 90.4906 202.774 90.5008C202.852 90.511 202.932 90.5049 203.009 90.4829Z" fill="#663B1E"/>
<path d="M208.602 102.02C209.464 102.02 210.163 101.678 210.163 101.256C210.163 100.834 209.464 100.492 208.602 100.492C207.739 100.492 207.041 100.834 207.041 101.256C207.041 101.678 207.739 102.02 208.602 102.02Z" fill="#DD9B6F"/>
<path d="M216.053 132.349L223.255 133.499L221.959 141.216L215.731 139.897L216.053 132.349Z" fill="#008964"/>
</svg>
