<svg width="87" height="19" viewBox="0 0 87 19" fill="none" xmlns="http://www.w3.org/2000/svg">
<path d="M4.89676 18V4.58954H0V1.42891H13.9558V4.58954H9.05901V18H4.89676ZM22.3359 14.7392V12.135C21.6756 12.2018 21.1414 12.2611 20.7333 12.3131C20.3253 12.3576 19.9246 12.4503 19.5314 12.5913C19.1901 12.71 18.923 12.8918 18.7301 13.1366C18.5446 13.374 18.4519 13.6931 18.4519 14.0937C18.4519 14.6798 18.6077 15.0842 18.9193 15.3068C19.2383 15.5219 19.7058 15.6295 20.3216 15.6295C20.6629 15.6295 21.0116 15.5516 21.3677 15.3958C21.7238 15.24 22.0466 15.0211 22.3359 14.7392ZM22.3359 16.6756C22.0688 16.8982 21.8277 17.0986 21.6125 17.2766C21.4048 17.4547 21.1229 17.6327 20.7667 17.8108C20.418 17.9815 20.0767 18.1113 19.7429 18.2003C19.4164 18.2894 18.9564 18.3339 18.3629 18.3339C17.2574 18.3339 16.3374 17.9629 15.6029 17.221C14.8758 16.479 14.5122 15.5442 14.5122 14.4165C14.5122 13.489 14.6977 12.7397 15.0687 12.1684C15.4396 11.5971 15.9738 11.1445 16.6713 10.8107C17.3761 10.4694 18.2182 10.232 19.1975 10.0984C20.1769 9.96486 21.2304 9.86099 22.3582 9.78679V9.72002C22.3582 9.03002 22.1022 8.55518 21.5903 8.2955C21.0858 8.02841 20.3253 7.89486 19.3088 7.89486C18.8488 7.89486 18.3109 7.98018 17.6951 8.15083C17.0793 8.31405 16.4784 8.5255 15.8922 8.78518H15.5584V5.76922C15.9442 5.65793 16.5674 5.52809 17.428 5.3797C18.2887 5.2239 19.1567 5.146 20.0322 5.146C22.1838 5.146 23.7493 5.50583 24.7287 6.22551C25.7154 6.93777 26.2088 8.02841 26.2088 9.49744V18H22.3359V16.6756ZM32.8973 18.345C31.9774 18.345 31.1056 18.2448 30.282 18.0445C29.4659 17.8442 28.7907 17.6105 28.2566 17.3434V14.0492H28.5793C28.7648 14.1902 28.9762 14.346 29.2136 14.5166C29.4511 14.6873 29.7812 14.8653 30.2041 15.0508C30.5677 15.2215 30.9757 15.3698 31.4283 15.496C31.8883 15.6147 32.3854 15.674 32.9196 15.674C33.4686 15.674 33.9509 15.5887 34.3664 15.4181C34.7893 15.2474 35.0007 14.9766 35.0007 14.6057C35.0007 14.3163 34.9043 14.0974 34.7114 13.949C34.5185 13.8007 34.1438 13.6597 33.5873 13.5261C33.2906 13.4519 32.9159 13.374 32.4633 13.2924C32.0107 13.2034 31.6101 13.1032 31.2614 12.9919C30.282 12.6878 29.5438 12.2389 29.0467 11.6453C28.557 11.0444 28.3122 10.2579 28.3122 9.28599C28.3122 8.72954 28.4383 8.20647 28.6906 7.7168C28.9503 7.2197 29.3286 6.77825 29.8257 6.39244C30.3228 6.01406 30.9349 5.71357 31.662 5.49099C32.3965 5.26841 33.2238 5.15712 34.1438 5.15712C35.0193 5.15712 35.8243 5.24616 36.5588 5.42422C37.2933 5.59487 37.9128 5.80261 38.4173 6.04744V9.20808H38.1057C37.9722 9.10421 37.7607 8.96695 37.4714 8.79631C37.182 8.61825 36.9001 8.46615 36.6256 8.34002C36.2991 8.19163 35.9319 8.06921 35.5238 7.97276C35.1232 7.87631 34.7114 7.82809 34.2885 7.82809C33.7246 7.82809 33.2461 7.92454 32.8528 8.11744C32.467 8.31034 32.2741 8.56631 32.2741 8.88534C32.2741 9.16728 32.3706 9.38986 32.5635 9.55308C32.7564 9.71631 33.1756 9.87582 33.8211 10.0316C34.1549 10.1132 34.537 10.1949 34.9673 10.2765C35.4051 10.3507 35.8243 10.4545 36.2249 10.5881C37.1227 10.8774 37.8015 11.304 38.2615 11.8679C38.7289 12.4244 38.9627 13.1663 38.9627 14.0937C38.9627 14.6798 38.8254 15.24 38.5509 15.7742C38.2764 16.301 37.8869 16.7461 37.3823 17.1097C36.8481 17.5029 36.2175 17.8071 35.4904 18.0223C34.7707 18.2374 33.9064 18.345 32.8973 18.345ZM53.3302 18H48.7005L45.3173 12.5579L44.7164 13.3703V18H40.8212V0.683263H44.7164V10.3878L48.4112 5.50212H53.0075L48.6338 10.8886L53.3302 18Z" fill="#756B6B"/>
<path d="M71.7042 18H67.5642V7.01567L64.5482 14.1048H61.7104L58.6944 7.01567V18H54.777V1.42891H59.5736L63.2462 9.60873L66.9076 1.42891H71.7042V18ZM81.3197 18.3339C78.9603 18.3339 77.15 17.77 75.8887 16.6423C74.6348 15.5145 74.0079 13.9082 74.0079 11.8234C74.0079 9.78308 74.594 8.15454 75.7663 6.93777C76.9385 5.72099 78.5782 5.11261 80.6853 5.11261C82.5995 5.11261 84.0389 5.62825 85.0034 6.65954C85.9679 7.69083 86.4501 9.16728 86.4501 11.0889V12.4911H77.9142C77.9513 13.0698 78.0737 13.5558 78.2814 13.949C78.4892 14.3348 78.7637 14.6427 79.105 14.8727C79.4389 15.1027 79.8284 15.2697 80.2735 15.3736C80.7187 15.47 81.2047 15.5182 81.7314 15.5182C82.184 15.5182 82.6292 15.47 83.0669 15.3736C83.5047 15.2697 83.9053 15.1361 84.2689 14.9729C84.5879 14.8319 84.8809 14.6798 85.148 14.5166C85.4226 14.3534 85.6451 14.2087 85.8158 14.0826H86.2276V17.2989C85.9085 17.425 85.6155 17.5437 85.3484 17.655C85.0887 17.7589 84.7289 17.8665 84.2689 17.9777C83.846 18.089 83.4082 18.1744 82.9556 18.2337C82.5105 18.3005 81.9651 18.3339 81.3197 18.3339ZM82.6106 10.1429C82.5884 9.31937 82.3955 8.69244 82.0319 8.26212C81.6758 7.8318 81.1268 7.61663 80.3848 7.61663C79.6281 7.61663 79.0345 7.84292 78.6042 8.2955C78.1813 8.74808 77.9476 9.36389 77.9031 10.1429H82.6106Z" fill="#B60000"/>
</svg>
